<mxfile host="app.diagrams.net" modified="2024-07-15T15:30:54.482Z" agent="Mozilla/5.0 (Windows NT 10.0; Win64; x64; rv:123.0) Gecko/20100101 Firefox/123.0" etag="njq5s7N61sITfOKR3hHE" version="24.6.5" type="github" pages="5">
  <diagram id="C5RBs43oDa-KdzZeNtuy" name="Sambungan Audiovisual">
    <mxGraphModel dx="1050" dy="654" grid="0" gridSize="10" guides="1" tooltips="1" connect="1" arrows="1" fold="1" page="1" pageScale="1" pageWidth="827" pageHeight="1169" math="0" shadow="0">
      <root>
        <mxCell id="WIyWlLk6GJQsqaUBKTNV-0" />
        <mxCell id="WIyWlLk6GJQsqaUBKTNV-1" parent="WIyWlLk6GJQsqaUBKTNV-0" />
        <mxCell id="klkN4WSvRXcQ4CA0E7z0-4" value="&lt;font style=&quot;font-size: 15px;&quot;&gt;Wired HDMI&lt;br&gt;&lt;/font&gt;" style="rounded=0;orthogonalLoop=1;jettySize=auto;html=1;strokeWidth=3;" parent="WIyWlLk6GJQsqaUBKTNV-1" source="klkN4WSvRXcQ4CA0E7z0-0" target="klkN4WSvRXcQ4CA0E7z0-5" edge="1">
          <mxGeometry relative="1" as="geometry">
            <mxPoint x="441.3899999999999" y="190.75" as="targetPoint" />
          </mxGeometry>
        </mxCell>
        <mxCell id="klkN4WSvRXcQ4CA0E7z0-9" value="&lt;div&gt;&lt;font style=&quot;font-size: 15px;&quot;&gt;If connection&lt;/font&gt;&lt;/div&gt;&lt;div&gt;&lt;font style=&quot;font-size: 15px;&quot;&gt;can be wireless&lt;/font&gt;&lt;/div&gt;" style="rounded=0;orthogonalLoop=1;jettySize=auto;html=1;strokeWidth=3;dashed=1;" parent="WIyWlLk6GJQsqaUBKTNV-1" source="klkN4WSvRXcQ4CA0E7z0-0" target="klkN4WSvRXcQ4CA0E7z0-7" edge="1">
          <mxGeometry relative="1" as="geometry">
            <mxPoint x="212" y="157.75" as="targetPoint" />
          </mxGeometry>
        </mxCell>
        <mxCell id="klkN4WSvRXcQ4CA0E7z0-11" value="&lt;div style=&quot;font-size: 15px;&quot;&gt;&lt;font style=&quot;font-size: 15px;&quot;&gt;Wireless&lt;/font&gt;&lt;/div&gt;&lt;div style=&quot;font-size: 15px;&quot;&gt;&lt;font style=&quot;font-size: 15px;&quot;&gt;display feed&lt;/font&gt;&lt;/div&gt;" style="rounded=0;orthogonalLoop=1;jettySize=auto;html=1;strokeWidth=3;dashed=1;edgeStyle=orthogonalEdgeStyle;" parent="WIyWlLk6GJQsqaUBKTNV-1" source="klkN4WSvRXcQ4CA0E7z0-0" target="klkN4WSvRXcQ4CA0E7z0-10" edge="1">
          <mxGeometry relative="1" as="geometry" />
        </mxCell>
        <mxCell id="klkN4WSvRXcQ4CA0E7z0-14" value="&lt;div style=&quot;font-size: 15px;&quot;&gt;&lt;font style=&quot;font-size: 15px;&quot;&gt;Wireless&lt;/font&gt;&lt;/div&gt;&lt;div style=&quot;font-size: 15px;&quot;&gt;&lt;font style=&quot;font-size: 15px;&quot;&gt;display feed&lt;br&gt;&lt;/font&gt;&lt;/div&gt;" style="rounded=0;orthogonalLoop=1;jettySize=auto;html=1;edgeStyle=orthogonalEdgeStyle;strokeWidth=3;dashed=1;" parent="WIyWlLk6GJQsqaUBKTNV-1" source="klkN4WSvRXcQ4CA0E7z0-0" target="klkN4WSvRXcQ4CA0E7z0-13" edge="1">
          <mxGeometry relative="1" as="geometry" />
        </mxCell>
        <mxCell id="klkN4WSvRXcQ4CA0E7z0-19" value="&lt;font style=&quot;font-size: 15px;&quot;&gt;Wired Ethernet&lt;br&gt;&lt;/font&gt;" style="edgeStyle=orthogonalEdgeStyle;rounded=0;orthogonalLoop=1;jettySize=auto;html=1;strokeWidth=3;" parent="WIyWlLk6GJQsqaUBKTNV-1" source="klkN4WSvRXcQ4CA0E7z0-0" target="klkN4WSvRXcQ4CA0E7z0-18" edge="1">
          <mxGeometry x="0.0816" relative="1" as="geometry">
            <mxPoint as="offset" />
          </mxGeometry>
        </mxCell>
        <mxCell id="klkN4WSvRXcQ4CA0E7z0-23" value="&lt;font style=&quot;font-size: 15px;&quot;&gt;Wired Jack&lt;br&gt;&lt;/font&gt;" style="rounded=0;orthogonalLoop=1;jettySize=auto;html=1;strokeWidth=3;elbow=vertical;entryX=0;entryY=0;entryDx=0;entryDy=0;" parent="WIyWlLk6GJQsqaUBKTNV-1" source="klkN4WSvRXcQ4CA0E7z0-0" target="klkN4WSvRXcQ4CA0E7z0-20" edge="1">
          <mxGeometry x="0.4678" y="-1" relative="1" as="geometry">
            <mxPoint as="offset" />
          </mxGeometry>
        </mxCell>
        <mxCell id="klkN4WSvRXcQ4CA0E7z0-0" value="&lt;div&gt;&lt;font style=&quot;font-size: 15px;&quot;&gt;Master Machine (Monitored)&lt;br&gt;&lt;/font&gt;&lt;/div&gt;" style="sketch=0;pointerEvents=1;shadow=0;dashed=0;html=1;aspect=fixed;labelPosition=center;verticalLabelPosition=bottom;verticalAlign=top;align=center;outlineConnect=0;shape=mxgraph.vvd.laptop;fillStyle=solid;fillColor=#000000;labelBackgroundColor=default;" parent="WIyWlLk6GJQsqaUBKTNV-1" vertex="1">
          <mxGeometry x="365" y="378" width="152.78" height="110" as="geometry" />
        </mxCell>
        <mxCell id="klkN4WSvRXcQ4CA0E7z0-5" value="&lt;div&gt;Downstairs Projection&lt;/div&gt;&lt;div&gt;(Projector 1)&lt;/div&gt;" style="verticalAlign=bottom;verticalLabelPosition=top;labelPosition=center;align=center;html=1;outlineConnect=0;gradientDirection=north;strokeWidth=2;shape=mxgraph.networks.video_projector;fontSize=15;" parent="WIyWlLk6GJQsqaUBKTNV-1" vertex="1">
          <mxGeometry x="379.39" y="113.75" width="125.22" height="45" as="geometry" />
        </mxCell>
        <mxCell id="klkN4WSvRXcQ4CA0E7z0-7" value="&lt;font style=&quot;font-size: 15px;&quot;&gt;TV Projection&lt;br&gt;&lt;/font&gt;" style="sketch=0;pointerEvents=1;shadow=0;dashed=0;html=1;labelPosition=center;verticalLabelPosition=top;verticalAlign=bottom;outlineConnect=0;align=center;shape=mxgraph.office.devices.tv;strokeWidth=2;" parent="WIyWlLk6GJQsqaUBKTNV-1" vertex="1">
          <mxGeometry x="12" y="39" width="157" height="119.75" as="geometry" />
        </mxCell>
        <mxCell id="klkN4WSvRXcQ4CA0E7z0-12" value="&lt;font style=&quot;font-size: 15px;&quot;&gt;Wired HDMI&lt;br&gt;&lt;/font&gt;" style="edgeStyle=orthogonalEdgeStyle;rounded=0;orthogonalLoop=1;jettySize=auto;html=1;strokeWidth=3;" parent="WIyWlLk6GJQsqaUBKTNV-1" source="klkN4WSvRXcQ4CA0E7z0-10" target="klkN4WSvRXcQ4CA0E7z0-7" edge="1">
          <mxGeometry relative="1" as="geometry">
            <mxPoint x="90.38999999999987" y="186.95000000000005" as="targetPoint" />
          </mxGeometry>
        </mxCell>
        <mxCell id="klkN4WSvRXcQ4CA0E7z0-10" value="&lt;div style=&quot;font-size: 15px;&quot;&gt;&lt;font style=&quot;font-size: 15px;&quot;&gt;Secondary Supplement&amp;nbsp;&lt;/font&gt;&lt;/div&gt;&lt;div style=&quot;font-size: 15px;&quot;&gt;&lt;font style=&quot;font-size: 15px;&quot;&gt;Display Machine&lt;br&gt;(Unmonitored)&lt;br&gt;&lt;/font&gt;&lt;/div&gt;" style="sketch=0;pointerEvents=1;shadow=0;dashed=0;html=1;aspect=fixed;labelPosition=center;verticalLabelPosition=bottom;verticalAlign=top;align=center;outlineConnect=0;shape=mxgraph.vvd.laptop;fillStyle=solid;fillColor=#000000;" parent="WIyWlLk6GJQsqaUBKTNV-1" vertex="1">
          <mxGeometry x="36" y="409.68" width="108.78" height="78.32" as="geometry" />
        </mxCell>
        <mxCell id="klkN4WSvRXcQ4CA0E7z0-17" value="&lt;font style=&quot;font-size: 15px;&quot;&gt;Wired HDMI&lt;br&gt;&lt;/font&gt;" style="edgeStyle=orthogonalEdgeStyle;rounded=0;orthogonalLoop=1;jettySize=auto;html=1;strokeWidth=3;" parent="WIyWlLk6GJQsqaUBKTNV-1" source="klkN4WSvRXcQ4CA0E7z0-13" target="klkN4WSvRXcQ4CA0E7z0-16" edge="1">
          <mxGeometry relative="1" as="geometry" />
        </mxCell>
        <mxCell id="klkN4WSvRXcQ4CA0E7z0-13" value="&lt;div style=&quot;font-size: 15px;&quot;&gt;&lt;font style=&quot;font-size: 15px;&quot;&gt;Tertiary Supplement&amp;nbsp;&lt;/font&gt;&lt;/div&gt;&lt;div style=&quot;font-size: 15px;&quot;&gt;&lt;font style=&quot;font-size: 15px;&quot;&gt;Display Machine&lt;/font&gt;&lt;/div&gt;&lt;div style=&quot;font-size: 15px;&quot;&gt;&lt;font style=&quot;font-size: 15px;&quot;&gt;(Unmonitored)&lt;br&gt;&lt;/font&gt;&lt;/div&gt;" style="sketch=0;pointerEvents=1;shadow=0;dashed=0;html=1;aspect=fixed;labelPosition=center;verticalLabelPosition=bottom;verticalAlign=top;align=center;outlineConnect=0;shape=mxgraph.vvd.laptop;fillStyle=solid;fillColor=#000000;" parent="WIyWlLk6GJQsqaUBKTNV-1" vertex="1">
          <mxGeometry x="694" y="409.68" width="108.78" height="78.32" as="geometry" />
        </mxCell>
        <mxCell id="klkN4WSvRXcQ4CA0E7z0-16" value="&lt;div&gt;Upstairs Projection&lt;/div&gt;&lt;div&gt;(Projector 2)&lt;/div&gt;" style="verticalAlign=bottom;verticalLabelPosition=top;labelPosition=center;align=center;html=1;outlineConnect=0;gradientDirection=north;strokeWidth=2;shape=mxgraph.networks.video_projector;fontSize=15;" parent="WIyWlLk6GJQsqaUBKTNV-1" vertex="1">
          <mxGeometry x="686" y="113.75" width="125.22" height="45" as="geometry" />
        </mxCell>
        <mxCell id="klkN4WSvRXcQ4CA0E7z0-25" value="&lt;div style=&quot;font-size: 15px;&quot;&gt;&lt;font style=&quot;font-size: 15px;&quot;&gt;Wireless&lt;/font&gt;&lt;/div&gt;&lt;div style=&quot;font-size: 15px;&quot;&gt;&lt;font style=&quot;font-size: 15px;&quot;&gt;screen&lt;br&gt;&lt;/font&gt;&lt;/div&gt;&lt;div style=&quot;font-size: 15px;&quot;&gt;&lt;font style=&quot;font-size: 15px;&quot;&gt;mirroring&lt;/font&gt;&lt;/div&gt;" style="edgeStyle=orthogonalEdgeStyle;rounded=0;orthogonalLoop=1;jettySize=auto;html=1;strokeWidth=3;startArrow=classic;startFill=1;dashed=1;" parent="WIyWlLk6GJQsqaUBKTNV-1" source="klkN4WSvRXcQ4CA0E7z0-18" target="klkN4WSvRXcQ4CA0E7z0-24" edge="1">
          <mxGeometry relative="1" as="geometry" />
        </mxCell>
        <mxCell id="klkN4WSvRXcQ4CA0E7z0-27" value="&lt;div&gt;&lt;font style=&quot;font-size: 15px;&quot;&gt;Wireless&amp;nbsp;&lt;/font&gt;&lt;/div&gt;&lt;div&gt;&lt;font style=&quot;font-size: 15px;&quot;&gt;screen&amp;nbsp;&lt;/font&gt;&lt;/div&gt;&lt;div&gt;&lt;font style=&quot;font-size: 15px;&quot;&gt;mirroring&lt;/font&gt;&lt;/div&gt;" style="rounded=0;orthogonalLoop=1;jettySize=auto;html=1;strokeWidth=3;startArrow=classic;startFill=1;dashed=1;" parent="WIyWlLk6GJQsqaUBKTNV-1" source="klkN4WSvRXcQ4CA0E7z0-18" target="klkN4WSvRXcQ4CA0E7z0-26" edge="1">
          <mxGeometry x="0.1063" y="3" relative="1" as="geometry">
            <mxPoint x="-1" as="offset" />
          </mxGeometry>
        </mxCell>
        <mxCell id="klkN4WSvRXcQ4CA0E7z0-18" value="Router" style="verticalAlign=middle;verticalLabelPosition=middle;labelPosition=right;align=left;html=1;outlineConnect=0;gradientDirection=north;strokeWidth=2;shape=mxgraph.networks.router;fontSize=15;" parent="WIyWlLk6GJQsqaUBKTNV-1" vertex="1">
          <mxGeometry x="377" y="705" width="130" height="39" as="geometry" />
        </mxCell>
        <mxCell id="klkN4WSvRXcQ4CA0E7z0-20" value="&lt;font style=&quot;font-size: 15px;&quot;&gt;Speaker System&lt;br&gt;&lt;/font&gt;" style="shadow=0;strokeWidth=1;rounded=0;absoluteArcSize=1;arcSize=2;labelPosition=center;verticalLabelPosition=middle;align=center;verticalAlign=bottom;spacingLeft=0;fontSize=12;whiteSpace=wrap;spacingBottom=2;html=1;" parent="WIyWlLk6GJQsqaUBKTNV-1" vertex="1">
          <mxGeometry x="692.4300000000001" y="705" width="110.35" height="146.5" as="geometry" />
        </mxCell>
        <mxCell id="klkN4WSvRXcQ4CA0E7z0-21" value="" style="sketch=0;dashed=0;connectable=0;html=1;fillColor=#0D0D0D;strokeColor=none;shape=mxgraph.gcp2.speaker;part=1;" parent="klkN4WSvRXcQ4CA0E7z0-20" vertex="1">
          <mxGeometry x="0.5" width="64" height="93" relative="1" as="geometry">
            <mxPoint x="-32" y="10" as="offset" />
          </mxGeometry>
        </mxCell>
        <mxCell id="klkN4WSvRXcQ4CA0E7z0-24" value="&lt;div&gt;&lt;font style=&quot;font-size: 15px;&quot;&gt;Phone Camera 1&lt;/font&gt;&lt;/div&gt;&lt;div&gt;&lt;font style=&quot;font-size: 15px;&quot;&gt;(Emcee)&lt;/font&gt;&lt;/div&gt;" style="verticalLabelPosition=bottom;verticalAlign=top;html=1;shadow=0;dashed=0;strokeWidth=2;shape=mxgraph.android.phone2;direction=south;" parent="WIyWlLk6GJQsqaUBKTNV-1" vertex="1">
          <mxGeometry x="38" y="692" width="126.75" height="65" as="geometry" />
        </mxCell>
        <mxCell id="klkN4WSvRXcQ4CA0E7z0-26" value="&lt;div&gt;&lt;font style=&quot;font-size: 15px;&quot;&gt;Phone Camera 2&lt;/font&gt;&lt;/div&gt;&lt;div&gt;&lt;font style=&quot;font-size: 15px;&quot;&gt;(Moving)&lt;/font&gt;&lt;/div&gt;" style="verticalLabelPosition=bottom;verticalAlign=top;html=1;shadow=0;dashed=0;strokeWidth=2;shape=mxgraph.android.phone2;direction=south;" parent="WIyWlLk6GJQsqaUBKTNV-1" vertex="1">
          <mxGeometry x="378.63" y="1026.5" width="126.75" height="65" as="geometry" />
        </mxCell>
        <mxCell id="klkN4WSvRXcQ4CA0E7z0-30" value="&lt;div style=&quot;font-size: 15px;&quot;&gt;&lt;font style=&quot;font-size: 15px;&quot;&gt;Audio&lt;/font&gt;&lt;/div&gt;&lt;div style=&quot;font-size: 15px;&quot;&gt;&lt;font style=&quot;font-size: 15px;&quot;&gt;Jack&lt;/font&gt;&lt;/div&gt;" style="rounded=0;orthogonalLoop=1;jettySize=auto;html=1;entryX=0.5;entryY=1;entryDx=0;entryDy=0;strokeWidth=3;" parent="WIyWlLk6GJQsqaUBKTNV-1" source="klkN4WSvRXcQ4CA0E7z0-28" target="klkN4WSvRXcQ4CA0E7z0-20" edge="1">
          <mxGeometry relative="1" as="geometry" />
        </mxCell>
        <mxCell id="klkN4WSvRXcQ4CA0E7z0-28" value="&lt;div style=&quot;font-size: 15px;&quot;&gt;&lt;font style=&quot;font-size: 15px;&quot;&gt;Audio Management&lt;/font&gt;&lt;/div&gt;&lt;div style=&quot;font-size: 15px;&quot;&gt;&lt;font style=&quot;font-size: 15px;&quot;&gt;Machine (Monitored)&lt;br&gt;&lt;/font&gt;&lt;/div&gt;" style="sketch=0;pointerEvents=1;shadow=0;dashed=0;html=1;aspect=fixed;labelPosition=center;verticalLabelPosition=bottom;verticalAlign=top;align=center;outlineConnect=0;shape=mxgraph.vvd.laptop;fillStyle=solid;fillColor=#000000;" parent="WIyWlLk6GJQsqaUBKTNV-1" vertex="1">
          <mxGeometry x="694.22" y="1013.1800000000001" width="108.78" height="78.32" as="geometry" />
        </mxCell>
      </root>
    </mxGraphModel>
  </diagram>
  <diagram name="Audiovisual_v2" id="mv2y3fgu7UrPf1QVvXxW">
    <mxGraphModel grid="0" page="1" gridSize="10" guides="1" tooltips="1" connect="1" arrows="1" fold="1" pageScale="1" pageWidth="827" pageHeight="1169" math="0" shadow="0">
      <root>
        <mxCell id="KxVt5tkeIanzMLPi6als-0" />
        <mxCell id="KxVt5tkeIanzMLPi6als-1" parent="KxVt5tkeIanzMLPi6als-0" />
        <mxCell id="KxVt5tkeIanzMLPi6als-2" value="&lt;font style=&quot;font-size: 15px;&quot;&gt;Wired HDMI&lt;br&gt;&lt;/font&gt;" style="rounded=0;orthogonalLoop=1;jettySize=auto;html=1;strokeWidth=3;edgeStyle=orthogonalEdgeStyle;" parent="KxVt5tkeIanzMLPi6als-1" source="KxVt5tkeIanzMLPi6als-8" target="KxVt5tkeIanzMLPi6als-9" edge="1">
          <mxGeometry x="0.4741" y="-2" relative="1" as="geometry">
            <mxPoint x="441.3899999999999" y="190.75" as="targetPoint" />
            <Array as="points">
              <mxPoint x="475" y="227" />
              <mxPoint x="540" y="227" />
            </Array>
            <mxPoint as="offset" />
          </mxGeometry>
        </mxCell>
        <mxCell id="KxVt5tkeIanzMLPi6als-9" value="DSG Projection (For Rehearsal)" style="verticalAlign=bottom;verticalLabelPosition=top;labelPosition=center;align=center;html=1;outlineConnect=0;gradientDirection=north;strokeWidth=2;shape=mxgraph.networks.video_projector;fontSize=15;dashed=1;" parent="KxVt5tkeIanzMLPi6als-1" vertex="1">
          <mxGeometry x="463" y="113.75" width="125.22" height="45" as="geometry" />
        </mxCell>
        <mxCell id="rEaIer29tmOWpKasqCSU-3" value="&lt;div style=&quot;font-size: 15px;&quot;&gt;&lt;font style=&quot;font-size: 15px;&quot;&gt;Video&lt;/font&gt;&lt;/div&gt;&lt;div style=&quot;font-size: 15px;&quot;&gt;&lt;font style=&quot;font-size: 15px;&quot;&gt;and Audio feed&lt;/font&gt;&lt;/div&gt;&lt;div style=&quot;font-size: 15px;&quot;&gt;&lt;font style=&quot;font-size: 15px;&quot;&gt;(Powered by&amp;nbsp;&lt;/font&gt;&lt;/div&gt;&lt;div style=&quot;font-size: 15px;&quot;&gt;&lt;font style=&quot;font-size: 15px;&quot;&gt;PARSEC) [1]&lt;br&gt;&lt;/font&gt;&lt;/div&gt;" style="rounded=0;orthogonalLoop=1;jettySize=auto;html=1;strokeWidth=3;dashed=1;" edge="1" parent="KxVt5tkeIanzMLPi6als-1" source="KxVt5tkeIanzMLPi6als-10" target="KxVt5tkeIanzMLPi6als-8">
          <mxGeometry x="0.0119" y="-1" relative="1" as="geometry">
            <mxPoint as="offset" />
          </mxGeometry>
        </mxCell>
        <mxCell id="KxVt5tkeIanzMLPi6als-13" value="&lt;font style=&quot;font-size: 15px;&quot;&gt;Wired HDMI&lt;br&gt;&lt;/font&gt;" style="edgeStyle=orthogonalEdgeStyle;rounded=0;orthogonalLoop=1;jettySize=auto;html=1;strokeWidth=3;" parent="KxVt5tkeIanzMLPi6als-1" source="KxVt5tkeIanzMLPi6als-14" target="KxVt5tkeIanzMLPi6als-15" edge="1">
          <mxGeometry relative="1" as="geometry" />
        </mxCell>
        <mxCell id="KxVt5tkeIanzMLPi6als-14" value="&lt;div style=&quot;font-size: 15px;&quot;&gt;&lt;font style=&quot;font-size: 15px;&quot;&gt;Display Machine&lt;/font&gt;&lt;/div&gt;&lt;div style=&quot;font-size: 15px;&quot;&gt;&lt;font style=&quot;font-size: 15px;&quot;&gt;(IZZAT-PC)&lt;br&gt;&lt;/font&gt;&lt;/div&gt;" style="sketch=0;pointerEvents=1;shadow=0;dashed=0;html=1;aspect=fixed;labelPosition=center;verticalLabelPosition=bottom;verticalAlign=top;align=center;outlineConnect=0;shape=mxgraph.vvd.laptop;fillStyle=solid;fillColor=#000000;" parent="KxVt5tkeIanzMLPi6als-1" vertex="1">
          <mxGeometry x="694.22" y="349.00000000000006" width="108.78" height="78.32" as="geometry" />
        </mxCell>
        <mxCell id="KxVt5tkeIanzMLPi6als-15" value="&lt;div&gt;Downstairs Projection&lt;/div&gt;&lt;div&gt;(Projector 2)&lt;/div&gt;" style="verticalAlign=bottom;verticalLabelPosition=top;labelPosition=center;align=center;html=1;outlineConnect=0;gradientDirection=north;strokeWidth=2;shape=mxgraph.networks.video_projector;fontSize=15;" parent="KxVt5tkeIanzMLPi6als-1" vertex="1">
          <mxGeometry x="686" y="113.75" width="125.22" height="45" as="geometry" />
        </mxCell>
        <mxCell id="KxVt5tkeIanzMLPi6als-19" value="&lt;font style=&quot;font-size: 15px;&quot;&gt;Speaker System&lt;br&gt;&lt;/font&gt;" style="shadow=0;strokeWidth=1;rounded=0;absoluteArcSize=1;arcSize=2;labelPosition=center;verticalLabelPosition=middle;align=center;verticalAlign=bottom;spacingLeft=0;fontSize=12;whiteSpace=wrap;spacingBottom=2;html=1;" parent="KxVt5tkeIanzMLPi6als-1" vertex="1">
          <mxGeometry x="273.6500000000001" y="12.25" width="110.35" height="146.5" as="geometry" />
        </mxCell>
        <mxCell id="KxVt5tkeIanzMLPi6als-20" value="" style="sketch=0;dashed=0;connectable=0;html=1;fillColor=#0D0D0D;strokeColor=none;shape=mxgraph.gcp2.speaker;part=1;" parent="KxVt5tkeIanzMLPi6als-19" vertex="1">
          <mxGeometry x="0.5" width="64" height="93" relative="1" as="geometry">
            <mxPoint x="-32" y="10" as="offset" />
          </mxGeometry>
        </mxCell>
        <mxCell id="rEaIer29tmOWpKasqCSU-13" value="&lt;font style=&quot;font-size: 15px;&quot;&gt;Video feed&lt;/font&gt;&lt;div style=&quot;font-size: 15px;&quot;&gt;&lt;font style=&quot;font-size: 15px;&quot;&gt;(Powered by&amp;nbsp;&lt;/font&gt;&lt;/div&gt;&lt;div style=&quot;font-size: 15px;&quot;&gt;&lt;font style=&quot;font-size: 15px;&quot;&gt;PARSEC)&lt;br&gt;&lt;/font&gt;&lt;/div&gt;" style="rounded=0;orthogonalLoop=1;jettySize=auto;html=1;dashed=1;strokeWidth=3;" edge="1" parent="KxVt5tkeIanzMLPi6als-1" source="KxVt5tkeIanzMLPi6als-10" target="KxVt5tkeIanzMLPi6als-14">
          <mxGeometry relative="1" as="geometry" />
        </mxCell>
        <mxCell id="rEaIer29tmOWpKasqCSU-17" value="&lt;font style=&quot;font-size: 15px;&quot;&gt;Video feed&lt;/font&gt;&lt;div style=&quot;font-size: 15px;&quot;&gt;&lt;font style=&quot;font-size: 15px;&quot;&gt;(Powered by&amp;nbsp;&lt;/font&gt;&lt;/div&gt;&lt;div style=&quot;font-size: 15px;&quot;&gt;&lt;font style=&quot;font-size: 15px;&quot;&gt;PARSEC)&lt;br&gt;&lt;/font&gt;&lt;/div&gt;" style="rounded=0;orthogonalLoop=1;jettySize=auto;html=1;dashed=1;strokeWidth=3;" edge="1" parent="KxVt5tkeIanzMLPi6als-1" source="KxVt5tkeIanzMLPi6als-10" target="rEaIer29tmOWpKasqCSU-16">
          <mxGeometry relative="1" as="geometry" />
        </mxCell>
        <mxCell id="KxVt5tkeIanzMLPi6als-10" value="&lt;font style=&quot;font-size: 15px;&quot;&gt;TV Projection&lt;br&gt;&lt;/font&gt;" style="sketch=0;pointerEvents=1;shadow=0;dashed=0;html=1;labelPosition=center;verticalLabelPosition=top;verticalAlign=bottom;outlineConnect=0;align=center;shape=mxgraph.office.devices.tv;strokeWidth=2;labelBackgroundColor=default;" parent="KxVt5tkeIanzMLPi6als-1" vertex="1">
          <mxGeometry x="360" y="576.3199999999999" width="157" height="119.75" as="geometry" />
        </mxCell>
        <mxCell id="KxVt5tkeIanzMLPi6als-11" value="&lt;div&gt;&lt;font style=&quot;font-size: 15px;&quot;&gt;Wired HDMI&lt;br&gt;&lt;/font&gt;&lt;/div&gt;&lt;div&gt;&lt;font style=&quot;font-size: 15px;&quot;&gt;&quot;Extend&quot;&lt;/font&gt;&lt;/div&gt;&lt;div&gt;&lt;font style=&quot;font-size: 15px;&quot;&gt;Projection&lt;/font&gt;&lt;/div&gt;" style="edgeStyle=orthogonalEdgeStyle;rounded=0;orthogonalLoop=1;jettySize=auto;html=1;strokeWidth=3;" parent="KxVt5tkeIanzMLPi6als-1" source="KxVt5tkeIanzMLPi6als-12" target="KxVt5tkeIanzMLPi6als-10" edge="1">
          <mxGeometry x="-0.0732" relative="1" as="geometry">
            <mxPoint x="438.3899999999999" y="578.27" as="targetPoint" />
            <mxPoint as="offset" />
          </mxGeometry>
        </mxCell>
        <mxCell id="rEaIer29tmOWpKasqCSU-9" value="" style="verticalLabelPosition=bottom;verticalAlign=top;html=1;shape=mxgraph.basic.arc;startAngle=0.7531826745504864;endAngle=0.006492516275343945;strokeWidth=10;" vertex="1" parent="KxVt5tkeIanzMLPi6als-1">
          <mxGeometry x="429" y="816.3199999999999" width="100" height="100" as="geometry" />
        </mxCell>
        <mxCell id="rEaIer29tmOWpKasqCSU-10" value="" style="verticalLabelPosition=bottom;verticalAlign=top;html=1;shape=mxgraph.basic.arc;startAngle=0.9982118174606239;endAngle=0.2468173254495136;strokeWidth=10;" vertex="1" parent="KxVt5tkeIanzMLPi6als-1">
          <mxGeometry x="321" y="613.3199999999999" width="100" height="100" as="geometry" />
        </mxCell>
        <mxCell id="rEaIer29tmOWpKasqCSU-12" value="&lt;font style=&quot;font-size: 15px;&quot;&gt;Wired Audio&lt;br&gt;&lt;/font&gt;" style="rounded=0;orthogonalLoop=1;jettySize=auto;html=1;strokeWidth=3;edgeStyle=orthogonalEdgeStyle;" edge="1" parent="KxVt5tkeIanzMLPi6als-1" source="KxVt5tkeIanzMLPi6als-8" target="KxVt5tkeIanzMLPi6als-19">
          <mxGeometry x="0.5003" relative="1" as="geometry">
            <Array as="points">
              <mxPoint x="412" y="228" />
              <mxPoint x="329" y="228" />
            </Array>
            <mxPoint as="offset" />
          </mxGeometry>
        </mxCell>
        <mxCell id="KxVt5tkeIanzMLPi6als-8" value="&lt;div style=&quot;font-size: 15px;&quot;&gt;&lt;font style=&quot;font-size: 15px;&quot;&gt;Master Audio Machine&lt;br&gt;&lt;/font&gt;&lt;/div&gt;&lt;div style=&quot;font-size: 15px;&quot;&gt;&lt;font style=&quot;font-size: 15px;&quot;&gt;(ROI-PC)&lt;br&gt;&lt;/font&gt;&lt;/div&gt;" style="sketch=0;pointerEvents=1;shadow=0;dashed=0;html=1;aspect=fixed;labelPosition=center;verticalLabelPosition=top;verticalAlign=bottom;align=center;outlineConnect=0;shape=mxgraph.vvd.laptop;fillStyle=solid;fillColor=#000000;labelBackgroundColor=default;" parent="KxVt5tkeIanzMLPi6als-1" vertex="1">
          <mxGeometry x="390" y="349.32" width="108.33" height="78" as="geometry" />
        </mxCell>
        <mxCell id="rEaIer29tmOWpKasqCSU-19" value="&lt;font style=&quot;font-size: 15px;&quot;&gt;Wired HDMI&lt;br&gt;&lt;/font&gt;" style="edgeStyle=orthogonalEdgeStyle;rounded=0;orthogonalLoop=1;jettySize=auto;html=1;strokeWidth=3;" edge="1" parent="KxVt5tkeIanzMLPi6als-1" source="rEaIer29tmOWpKasqCSU-16" target="rEaIer29tmOWpKasqCSU-18">
          <mxGeometry relative="1" as="geometry" />
        </mxCell>
        <mxCell id="rEaIer29tmOWpKasqCSU-16" value="&lt;div style=&quot;font-size: 15px;&quot;&gt;&lt;font style=&quot;font-size: 15px;&quot;&gt;Display Machine&lt;/font&gt;&lt;/div&gt;&lt;div style=&quot;font-size: 15px;&quot;&gt;&lt;font style=&quot;font-size: 15px;&quot;&gt;(HZK2-PC)&lt;br&gt;&lt;/font&gt;&lt;/div&gt;" style="sketch=0;pointerEvents=1;shadow=0;dashed=0;html=1;aspect=fixed;labelPosition=center;verticalLabelPosition=bottom;verticalAlign=top;align=center;outlineConnect=0;shape=mxgraph.vvd.laptop;fillStyle=solid;fillColor=#000000;" vertex="1" parent="KxVt5tkeIanzMLPi6als-1">
          <mxGeometry x="69" y="349.00000000000006" width="108.78" height="78.32" as="geometry" />
        </mxCell>
        <mxCell id="rEaIer29tmOWpKasqCSU-18" value="&lt;div&gt;Upstairs Projection&lt;/div&gt;&lt;div&gt;(Projector 2)&lt;/div&gt;" style="verticalAlign=bottom;verticalLabelPosition=top;labelPosition=center;align=center;html=1;outlineConnect=0;gradientDirection=north;strokeWidth=2;shape=mxgraph.networks.video_projector;fontSize=15;" vertex="1" parent="KxVt5tkeIanzMLPi6als-1">
          <mxGeometry x="60.77999999999997" y="113.75" width="125.22" height="45" as="geometry" />
        </mxCell>
        <mxCell id="o9WRL-nxMg3azSyezB5t-1" value="&lt;font style=&quot;font-size: 15px;&quot;&gt;Wired Ethernet&lt;br&gt;&lt;/font&gt;" style="edgeStyle=orthogonalEdgeStyle;rounded=0;orthogonalLoop=1;jettySize=auto;html=1;strokeWidth=3;" edge="1" parent="KxVt5tkeIanzMLPi6als-1" source="o9WRL-nxMg3azSyezB5t-0" target="KxVt5tkeIanzMLPi6als-12">
          <mxGeometry x="-0.3399" relative="1" as="geometry">
            <mxPoint as="offset" />
          </mxGeometry>
        </mxCell>
        <mxCell id="IUNpT-yHg_sd3-zGScFr-3" value="&lt;div style=&quot;font-size: 15px;&quot;&gt;Screencap&lt;/div&gt;&lt;div style=&quot;font-size: 15px;&quot;&gt;via scrcpy&lt;br style=&quot;font-size: 15px;&quot;&gt;&lt;/div&gt;" style="edgeStyle=orthogonalEdgeStyle;rounded=0;orthogonalLoop=1;jettySize=auto;html=1;strokeWidth=3;startArrow=classic;startFill=1;fontSize=15;dashed=1;" edge="1" parent="KxVt5tkeIanzMLPi6als-1" source="o9WRL-nxMg3azSyezB5t-0" target="IUNpT-yHg_sd3-zGScFr-1">
          <mxGeometry relative="1" as="geometry" />
        </mxCell>
        <mxCell id="KxVt5tkeIanzMLPi6als-12" value="&lt;div style=&quot;font-size: 15px;&quot;&gt;&lt;font style=&quot;font-size: 15px;&quot;&gt;Livestream and&amp;nbsp;&lt;/font&gt;&lt;/div&gt;&lt;div style=&quot;font-size: 15px;&quot;&gt;&lt;font style=&quot;font-size: 15px;&quot;&gt;Video Feed Machine&lt;/font&gt;&lt;/div&gt;&lt;div style=&quot;font-size: 15px;&quot;&gt;&lt;font style=&quot;font-size: 15px;&quot;&gt;(HZK-PC)&lt;br&gt;&lt;/font&gt;&lt;/div&gt;" style="sketch=0;pointerEvents=1;shadow=0;dashed=0;html=1;aspect=fixed;labelPosition=center;verticalLabelPosition=bottom;verticalAlign=top;align=center;outlineConnect=0;shape=mxgraph.vvd.laptop;fillStyle=solid;fillColor=#000000;labelBackgroundColor=default;" parent="KxVt5tkeIanzMLPi6als-1" vertex="1">
          <mxGeometry x="384" y="801" width="108.78" height="78.32" as="geometry" />
        </mxCell>
        <mxCell id="o9WRL-nxMg3azSyezB5t-4" value="" style="sketch=0;pointerEvents=1;shadow=0;dashed=0;html=1;strokeColor=none;fillColor=#000000;aspect=fixed;labelPosition=center;verticalLabelPosition=bottom;verticalAlign=top;align=center;outlineConnect=0;shape=mxgraph.vvd.wi_fi;fillStyle=solid;rotation=-90;" vertex="1" parent="KxVt5tkeIanzMLPi6als-1">
          <mxGeometry x="318" y="995" width="50" height="50" as="geometry" />
        </mxCell>
        <mxCell id="IUNpT-yHg_sd3-zGScFr-2" value="&lt;font style=&quot;font-size: 15px;&quot;&gt;Screencap&lt;/font&gt;&lt;div style=&quot;font-size: 15px;&quot;&gt;&lt;font style=&quot;font-size: 15px;&quot;&gt;via scrcpy&lt;br style=&quot;font-size: 15px;&quot;&gt;&lt;/font&gt;&lt;/div&gt;" style="edgeStyle=orthogonalEdgeStyle;rounded=0;orthogonalLoop=1;jettySize=auto;html=1;fontSize=15;strokeWidth=3;startArrow=classic;startFill=1;dashed=1;" edge="1" parent="KxVt5tkeIanzMLPi6als-1" source="IUNpT-yHg_sd3-zGScFr-0" target="o9WRL-nxMg3azSyezB5t-0">
          <mxGeometry relative="1" as="geometry" />
        </mxCell>
        <mxCell id="IUNpT-yHg_sd3-zGScFr-0" value="&lt;div&gt;&lt;font style=&quot;font-size: 15px;&quot;&gt;Phone Camera 1&lt;/font&gt;&lt;/div&gt;&lt;div&gt;&lt;font style=&quot;font-size: 15px;&quot;&gt;(Emcee)&lt;/font&gt;&lt;/div&gt;" style="verticalLabelPosition=bottom;verticalAlign=top;html=1;shadow=0;dashed=0;strokeWidth=2;shape=mxgraph.android.phone2;direction=south;" vertex="1" parent="KxVt5tkeIanzMLPi6als-1">
          <mxGeometry x="43" y="1023" width="126.75" height="65" as="geometry" />
        </mxCell>
        <mxCell id="IUNpT-yHg_sd3-zGScFr-1" value="&lt;div&gt;&lt;font style=&quot;font-size: 15px;&quot;&gt;Phone Camera 2&lt;/font&gt;&lt;/div&gt;&lt;div&gt;&lt;font style=&quot;font-size: 15px;&quot;&gt;(Moving)&lt;/font&gt;&lt;/div&gt;" style="verticalLabelPosition=bottom;verticalAlign=top;html=1;shadow=0;dashed=0;strokeWidth=2;shape=mxgraph.android.phone2;direction=south;" vertex="1" parent="KxVt5tkeIanzMLPi6als-1">
          <mxGeometry x="670" y="1023" width="126.75" height="65" as="geometry" />
        </mxCell>
        <mxCell id="o9WRL-nxMg3azSyezB5t-0" value="Router" style="verticalAlign=top;verticalLabelPosition=bottom;labelPosition=center;align=center;html=1;outlineConnect=0;gradientDirection=north;strokeWidth=2;shape=mxgraph.networks.router;fontSize=15;labelBackgroundColor=default;" vertex="1" parent="KxVt5tkeIanzMLPi6als-1">
          <mxGeometry x="373.39" y="1049" width="130" height="39" as="geometry" />
        </mxCell>
      </root>
    </mxGraphModel>
  </diagram>
  <diagram id="UnoPm-aGsUIyJ5hG34ar" name="Kedudukan Projector dan kamera">
    <mxGraphModel grid="1" page="1" gridSize="10" guides="1" tooltips="1" connect="1" arrows="1" fold="1" pageScale="1" pageWidth="827" pageHeight="1169" math="0" shadow="0">
      <root>
        <mxCell id="0" />
        <mxCell id="1" parent="0" />
        <mxCell id="aJ_UcYTnGo-Rfv3P_P3W-1" value="" style="rounded=0;whiteSpace=wrap;html=1;" vertex="1" parent="1">
          <mxGeometry x="40" y="80" width="740" height="440" as="geometry" />
        </mxCell>
        <mxCell id="aJ_UcYTnGo-Rfv3P_P3W-2" value="Ground Floor" style="text;html=1;align=left;verticalAlign=middle;whiteSpace=wrap;rounded=0;fontSize=20;fontStyle=1" vertex="1" parent="1">
          <mxGeometry x="40" y="40" width="740" height="40" as="geometry" />
        </mxCell>
        <mxCell id="aJ_UcYTnGo-Rfv3P_P3W-3" value="" style="rounded=0;whiteSpace=wrap;html=1;" vertex="1" parent="1">
          <mxGeometry x="40" y="600" width="740" height="440" as="geometry" />
        </mxCell>
        <mxCell id="aJ_UcYTnGo-Rfv3P_P3W-4" value="First Floor" style="text;html=1;align=left;verticalAlign=middle;whiteSpace=wrap;rounded=0;fontSize=20;fontStyle=1" vertex="1" parent="1">
          <mxGeometry x="40" y="560" width="740" height="40" as="geometry" />
        </mxCell>
        <mxCell id="aJ_UcYTnGo-Rfv3P_P3W-5" value="" style="rounded=0;whiteSpace=wrap;html=1;fillStyle=hatch;fillColor=#030303;" vertex="1" parent="1">
          <mxGeometry x="40" y="600" width="440" height="440" as="geometry" />
        </mxCell>
        <mxCell id="aJ_UcYTnGo-Rfv3P_P3W-6" value="Projector Lower" style="rounded=1;whiteSpace=wrap;html=1;" vertex="1" parent="1">
          <mxGeometry x="580" y="150" width="70" height="50" as="geometry" />
        </mxCell>
        <mxCell id="aJ_UcYTnGo-Rfv3P_P3W-7" value="" style="triangle;whiteSpace=wrap;html=1;rotation=90;" vertex="1" parent="1">
          <mxGeometry x="565" y="-35" width="70" height="300" as="geometry" />
        </mxCell>
        <mxCell id="aJ_UcYTnGo-Rfv3P_P3W-8" value="TV" style="rounded=0;whiteSpace=wrap;html=1;" vertex="1" parent="1">
          <mxGeometry x="340" y="510" width="110" height="10" as="geometry" />
        </mxCell>
        <mxCell id="aJ_UcYTnGo-Rfv3P_P3W-9" value="Projector Upper" style="rounded=1;whiteSpace=wrap;html=1;" vertex="1" parent="1">
          <mxGeometry x="610" y="670" width="70" height="50" as="geometry" />
        </mxCell>
        <mxCell id="aJ_UcYTnGo-Rfv3P_P3W-10" value="" style="triangle;whiteSpace=wrap;html=1;rotation=90;" vertex="1" parent="1">
          <mxGeometry x="595" y="485" width="70" height="300" as="geometry" />
        </mxCell>
        <mxCell id="aJ_UcYTnGo-Rfv3P_P3W-11" value="" style="verticalLabelPosition=bottom;html=1;verticalAlign=top;align=center;shape=mxgraph.floorplan.stairs;" vertex="1" parent="1">
          <mxGeometry x="350" y="810" width="174" height="50" as="geometry" />
        </mxCell>
        <mxCell id="aJ_UcYTnGo-Rfv3P_P3W-12" value="" style="rounded=0;whiteSpace=wrap;html=1;fillStyle=hatch;fillColor=#030303;" vertex="1" parent="1">
          <mxGeometry x="480" y="290" width="300" height="230" as="geometry" />
        </mxCell>
        <mxCell id="aJ_UcYTnGo-Rfv3P_P3W-14" value="" style="verticalLabelPosition=bottom;html=1;verticalAlign=top;align=center;shape=mxgraph.floorplan.stairs;" vertex="1" parent="1">
          <mxGeometry x="350" y="290" width="174" height="50" as="geometry" />
        </mxCell>
        <mxCell id="aJ_UcYTnGo-Rfv3P_P3W-17" value="STAGE" style="rounded=1;whiteSpace=wrap;html=1;arcSize=4;" vertex="1" parent="1">
          <mxGeometry x="112.5" y="80" width="185" height="100" as="geometry" />
        </mxCell>
        <mxCell id="aJ_UcYTnGo-Rfv3P_P3W-13" value="" style="verticalLabelPosition=bottom;html=1;verticalAlign=top;align=center;shape=mxgraph.floorplan.doorDouble;aspect=fixed;rotation=-180;" vertex="1" parent="1">
          <mxGeometry x="140" y="450.94" width="130" height="69.06" as="geometry" />
        </mxCell>
        <mxCell id="aJ_UcYTnGo-Rfv3P_P3W-18" value="MEJA TEKNIKAL" style="rounded=1;whiteSpace=wrap;html=1;arcSize=4;" vertex="1" parent="1">
          <mxGeometry x="321" y="150" width="79" height="30" as="geometry" />
        </mxCell>
      </root>
    </mxGraphModel>
  </diagram>
  <diagram id="wFhuDuvqOZXQlfrpStXE" name="Carta alir media sosial">
    <mxGraphModel grid="1" page="1" gridSize="10" guides="1" tooltips="1" connect="1" arrows="1" fold="1" pageScale="1" pageWidth="827" pageHeight="1169" math="0" shadow="0">
      <root>
        <mxCell id="0" />
        <mxCell id="1" parent="0" />
        <mxCell id="TVSvLJnDIsPNwMM2JFxY-3" style="edgeStyle=orthogonalEdgeStyle;rounded=0;orthogonalLoop=1;jettySize=auto;html=1;exitX=0.5;exitY=1;exitDx=0;exitDy=0;entryX=0.5;entryY=0;entryDx=0;entryDy=0;strokeWidth=3;" edge="1" parent="1" source="TVSvLJnDIsPNwMM2JFxY-1" target="TVSvLJnDIsPNwMM2JFxY-2">
          <mxGeometry relative="1" as="geometry" />
        </mxCell>
        <mxCell id="TVSvLJnDIsPNwMM2JFxY-1" value="&lt;font style=&quot;font-size: 15px;&quot;&gt;MULA&lt;/font&gt;" style="rounded=1;whiteSpace=wrap;html=1;arcSize=50;" vertex="1" parent="1">
          <mxGeometry x="354" y="40" width="120" height="40" as="geometry" />
        </mxCell>
        <mxCell id="TVSvLJnDIsPNwMM2JFxY-5" style="edgeStyle=orthogonalEdgeStyle;rounded=0;orthogonalLoop=1;jettySize=auto;html=1;exitX=0.5;exitY=1;exitDx=0;exitDy=0;entryX=0.5;entryY=0;entryDx=0;entryDy=0;strokeWidth=3;" edge="1" parent="1" source="TVSvLJnDIsPNwMM2JFxY-2" target="TVSvLJnDIsPNwMM2JFxY-4">
          <mxGeometry relative="1" as="geometry" />
        </mxCell>
        <mxCell id="TVSvLJnDIsPNwMM2JFxY-2" value="Audiens mula masuk" style="rounded=0;whiteSpace=wrap;html=1;fontSize=15;" vertex="1" parent="1">
          <mxGeometry x="328" y="120" width="172" height="40" as="geometry" />
        </mxCell>
        <mxCell id="TVSvLJnDIsPNwMM2JFxY-7" style="edgeStyle=orthogonalEdgeStyle;rounded=0;orthogonalLoop=1;jettySize=auto;html=1;exitX=0.5;exitY=1;exitDx=0;exitDy=0;entryX=0.5;entryY=0;entryDx=0;entryDy=0;strokeWidth=3;" edge="1" parent="1" source="TVSvLJnDIsPNwMM2JFxY-4" target="TVSvLJnDIsPNwMM2JFxY-6">
          <mxGeometry relative="1" as="geometry" />
        </mxCell>
        <mxCell id="TVSvLJnDIsPNwMM2JFxY-4" value="Fotografi mula mengambil gambar" style="rounded=0;whiteSpace=wrap;html=1;fontSize=15;" vertex="1" parent="1">
          <mxGeometry x="328" y="200" width="172" height="80" as="geometry" />
        </mxCell>
        <mxCell id="TVSvLJnDIsPNwMM2JFxY-10" style="edgeStyle=orthogonalEdgeStyle;rounded=0;orthogonalLoop=1;jettySize=auto;html=1;exitX=0.5;exitY=1;exitDx=0;exitDy=0;strokeWidth=3;" edge="1" parent="1" source="TVSvLJnDIsPNwMM2JFxY-6" target="TVSvLJnDIsPNwMM2JFxY-9">
          <mxGeometry relative="1" as="geometry" />
        </mxCell>
        <mxCell id="TVSvLJnDIsPNwMM2JFxY-6" value="Selingan sebelum majlis bermula" style="rounded=0;whiteSpace=wrap;html=1;fontSize=15;" vertex="1" parent="1">
          <mxGeometry x="328" y="320" width="172" height="80" as="geometry" />
        </mxCell>
        <mxCell id="TVSvLJnDIsPNwMM2JFxY-9" value="" style="shape=image;imageAspect=0;aspect=fixed;verticalLabelPosition=bottom;verticalAlign=top;image=https://external-content.duckduckgo.com/iu/?u=https%3A%2F%2Fwww.drodd.com%2Fimages11%2Fmeme-faces1.png&amp;f=1&amp;nofb=1&amp;ipt=bbf0e297899611e15db1c82c603809ba9a228400a19a9b27a525781c719a2a38&amp;ipo=images;" vertex="1" parent="1">
          <mxGeometry x="328" y="440" width="172" height="121.72" as="geometry" />
        </mxCell>
        <mxCell id="_Pao6VtFYnhFTQ7MnovE-3" style="edgeStyle=orthogonalEdgeStyle;rounded=0;orthogonalLoop=1;jettySize=auto;html=1;exitX=0.5;exitY=0;exitDx=0;exitDy=0;exitPerimeter=0;" edge="1" parent="1" source="_Pao6VtFYnhFTQ7MnovE-1">
          <mxGeometry relative="1" as="geometry">
            <mxPoint x="40" y="40" as="targetPoint" />
            <Array as="points">
              <mxPoint x="155" y="140" />
              <mxPoint x="41" y="140" />
            </Array>
          </mxGeometry>
        </mxCell>
        <mxCell id="_Pao6VtFYnhFTQ7MnovE-1" value="Actor" style="shape=umlActor;verticalLabelPosition=bottom;verticalAlign=top;html=1;outlineConnect=0;" vertex="1" parent="1">
          <mxGeometry x="90" y="190" width="130" height="310" as="geometry" />
        </mxCell>
      </root>
    </mxGraphModel>
  </diagram>
  <diagram id="JH550zDh8P9ees_Xx8Wf" name="Audio Conn Schemes">
    <mxGraphModel grid="1" page="1" gridSize="10" guides="1" tooltips="1" connect="1" arrows="1" fold="1" pageScale="1" pageWidth="827" pageHeight="1169" math="0" shadow="0">
      <root>
        <mxCell id="0" />
        <mxCell id="1" parent="0" />
        <mxCell id="UmT_mL2CmANoHyXfQIeq-1" value="FOR MICROPHONE AND PERFORMANCE MUSIC INPUT (NO DUAL PLAYBACK)" style="text;html=1;align=center;verticalAlign=bottom;whiteSpace=wrap;rounded=0;fontSize=20;fontStyle=1" vertex="1" parent="1">
          <mxGeometry x="30" y="50" width="770" height="30" as="geometry" />
        </mxCell>
        <mxCell id="UmT_mL2CmANoHyXfQIeq-5" style="edgeStyle=orthogonalEdgeStyle;rounded=0;orthogonalLoop=1;jettySize=auto;html=1;" edge="1" parent="1" source="UmT_mL2CmANoHyXfQIeq-2">
          <mxGeometry relative="1" as="geometry">
            <mxPoint x="420" y="200" as="targetPoint" />
          </mxGeometry>
        </mxCell>
        <mxCell id="UmT_mL2CmANoHyXfQIeq-2" value="&lt;font style=&quot;font-size: 15px;&quot;&gt;scrcpy play based on Windows output device&lt;/font&gt;" style="rounded=0;whiteSpace=wrap;html=1;" vertex="1" parent="1">
          <mxGeometry x="330" y="100" width="180" height="60" as="geometry" />
        </mxCell>
        <mxCell id="UmT_mL2CmANoHyXfQIeq-8" style="edgeStyle=orthogonalEdgeStyle;rounded=0;orthogonalLoop=1;jettySize=auto;html=1;" edge="1" parent="1" source="UmT_mL2CmANoHyXfQIeq-6" target="UmT_mL2CmANoHyXfQIeq-7">
          <mxGeometry relative="1" as="geometry" />
        </mxCell>
        <mxCell id="UmT_mL2CmANoHyXfQIeq-6" value="to avoid feedback loop, output device set to CABLE input" style="rounded=0;whiteSpace=wrap;html=1;fontSize=15;" vertex="1" parent="1">
          <mxGeometry x="330" y="200" width="180" height="60" as="geometry" />
        </mxCell>
        <mxCell id="UmT_mL2CmANoHyXfQIeq-11" style="edgeStyle=orthogonalEdgeStyle;rounded=0;orthogonalLoop=1;jettySize=auto;html=1;" edge="1" parent="1" source="UmT_mL2CmANoHyXfQIeq-7" target="UmT_mL2CmANoHyXfQIeq-10">
          <mxGeometry relative="1" as="geometry" />
        </mxCell>
        <mxCell id="UmT_mL2CmANoHyXfQIeq-7" value="In OBS, set Mic/Aux input as CABLE output" style="rounded=0;whiteSpace=wrap;html=1;fontSize=15;" vertex="1" parent="1">
          <mxGeometry x="330" y="300" width="180" height="60" as="geometry" />
        </mxCell>
        <mxCell id="UmT_mL2CmANoHyXfQIeq-10" value="No audio output will be played on loudspeaker, but gets recorded on OBS." style="rounded=0;whiteSpace=wrap;html=1;fontSize=15;" vertex="1" parent="1">
          <mxGeometry x="230" y="400" width="380" height="60" as="geometry" />
        </mxCell>
        <mxCell id="UmT_mL2CmANoHyXfQIeq-12" value="FOR ANY MEDIA PLAYED (DUAL PLAYBACK)" style="text;html=1;align=center;verticalAlign=bottom;whiteSpace=wrap;rounded=0;fontSize=20;fontStyle=1" vertex="1" parent="1">
          <mxGeometry x="40" y="530" width="750" height="30" as="geometry" />
        </mxCell>
        <mxCell id="UmT_mL2CmANoHyXfQIeq-13" style="edgeStyle=orthogonalEdgeStyle;rounded=0;orthogonalLoop=1;jettySize=auto;html=1;" edge="1" parent="1" source="UmT_mL2CmANoHyXfQIeq-14" target="UmT_mL2CmANoHyXfQIeq-20">
          <mxGeometry relative="1" as="geometry">
            <mxPoint x="450" y="680" as="targetPoint" />
          </mxGeometry>
        </mxCell>
        <mxCell id="UmT_mL2CmANoHyXfQIeq-14" value="Media gets played" style="rounded=0;whiteSpace=wrap;html=1;fontSize=15;" vertex="1" parent="1">
          <mxGeometry x="360" y="580" width="180" height="60" as="geometry" />
        </mxCell>
        <mxCell id="UmT_mL2CmANoHyXfQIeq-15" value="Yes" style="edgeStyle=orthogonalEdgeStyle;rounded=0;orthogonalLoop=1;jettySize=auto;html=1;" edge="1" parent="1" target="UmT_mL2CmANoHyXfQIeq-18">
          <mxGeometry relative="1" as="geometry">
            <mxPoint x="450" y="780" as="sourcePoint" />
          </mxGeometry>
        </mxCell>
        <mxCell id="UmT_mL2CmANoHyXfQIeq-24" style="edgeStyle=orthogonalEdgeStyle;rounded=0;orthogonalLoop=1;jettySize=auto;html=1;" edge="1" parent="1" source="UmT_mL2CmANoHyXfQIeq-18">
          <mxGeometry relative="1" as="geometry">
            <mxPoint x="450" y="680" as="targetPoint" />
            <Array as="points">
              <mxPoint x="330" y="850" />
              <mxPoint x="330" y="680" />
            </Array>
          </mxGeometry>
        </mxCell>
        <mxCell id="UmT_mL2CmANoHyXfQIeq-18" value="&lt;div&gt;Mute Mic/Aux Input&lt;/div&gt;&lt;div&gt;(Avoid Dual Playback/ Echo)&lt;br&gt;&lt;/div&gt;" style="rounded=0;whiteSpace=wrap;html=1;fontSize=15;" vertex="1" parent="1">
          <mxGeometry x="360" y="820" width="180" height="60" as="geometry" />
        </mxCell>
        <mxCell id="UmT_mL2CmANoHyXfQIeq-21" value="No" style="edgeStyle=orthogonalEdgeStyle;rounded=0;orthogonalLoop=1;jettySize=auto;html=1;" edge="1" parent="1" source="UmT_mL2CmANoHyXfQIeq-20">
          <mxGeometry relative="1" as="geometry">
            <mxPoint x="590" y="750" as="targetPoint" />
          </mxGeometry>
        </mxCell>
        <mxCell id="UmT_mL2CmANoHyXfQIeq-20" value="Is media playing? [2]" style="rhombus;whiteSpace=wrap;html=1;fontSize=15;" vertex="1" parent="1">
          <mxGeometry x="360" y="720" width="180" height="60" as="geometry" />
        </mxCell>
        <mxCell id="UmT_mL2CmANoHyXfQIeq-28" style="edgeStyle=orthogonalEdgeStyle;rounded=0;orthogonalLoop=1;jettySize=auto;html=1;" edge="1" parent="1" source="UmT_mL2CmANoHyXfQIeq-22" target="UmT_mL2CmANoHyXfQIeq-26">
          <mxGeometry relative="1" as="geometry" />
        </mxCell>
        <mxCell id="UmT_mL2CmANoHyXfQIeq-22" value="&lt;div&gt;Unmute Mic/Aux Input&lt;/div&gt;&lt;div&gt;(No Dual Playback)&lt;br&gt;&lt;/div&gt;" style="rounded=0;whiteSpace=wrap;html=1;fontSize=15;" vertex="1" parent="1">
          <mxGeometry x="590" y="720" width="180" height="60" as="geometry" />
        </mxCell>
        <mxCell id="UmT_mL2CmANoHyXfQIeq-26" value="&lt;i&gt;Proceed with next instructions...&lt;br&gt;&lt;/i&gt;" style="rounded=1;whiteSpace=wrap;html=1;fontSize=15;dashed=1;arcSize=50;" vertex="1" parent="1">
          <mxGeometry x="590" y="820" width="180" height="60" as="geometry" />
        </mxCell>
        <mxCell id="UmT_mL2CmANoHyXfQIeq-30" style="edgeStyle=orthogonalEdgeStyle;rounded=0;orthogonalLoop=1;jettySize=auto;html=1;" edge="1" parent="1" source="UmT_mL2CmANoHyXfQIeq-27" target="UmT_mL2CmANoHyXfQIeq-29">
          <mxGeometry relative="1" as="geometry" />
        </mxCell>
        <mxCell id="UmT_mL2CmANoHyXfQIeq-27" value="Media is inserted." style="rounded=1;whiteSpace=wrap;html=1;fontSize=15;arcSize=50;" vertex="1" parent="1">
          <mxGeometry x="60" y="580" width="180" height="60" as="geometry" />
        </mxCell>
        <mxCell id="UmT_mL2CmANoHyXfQIeq-32" style="edgeStyle=orthogonalEdgeStyle;rounded=0;orthogonalLoop=1;jettySize=auto;html=1;" edge="1" parent="1" source="UmT_mL2CmANoHyXfQIeq-29" target="UmT_mL2CmANoHyXfQIeq-31">
          <mxGeometry relative="1" as="geometry" />
        </mxCell>
        <mxCell id="UmT_mL2CmANoHyXfQIeq-29" value="Enable Output Monitoring of ALL Media" style="rounded=0;whiteSpace=wrap;html=1;fontSize=15;" vertex="1" parent="1">
          <mxGeometry x="60" y="680" width="180" height="60" as="geometry" />
        </mxCell>
        <mxCell id="UmT_mL2CmANoHyXfQIeq-34" style="edgeStyle=orthogonalEdgeStyle;rounded=0;orthogonalLoop=1;jettySize=auto;html=1;" edge="1" parent="1" source="UmT_mL2CmANoHyXfQIeq-31" target="UmT_mL2CmANoHyXfQIeq-33">
          <mxGeometry relative="1" as="geometry" />
        </mxCell>
        <mxCell id="UmT_mL2CmANoHyXfQIeq-31" value="OBS: Set device monitoring to USB Audio" style="rounded=0;whiteSpace=wrap;html=1;fontSize=15;" vertex="1" parent="1">
          <mxGeometry x="60" y="780" width="180" height="60" as="geometry" />
        </mxCell>
        <mxCell id="UmT_mL2CmANoHyXfQIeq-35" style="edgeStyle=orthogonalEdgeStyle;rounded=0;orthogonalLoop=1;jettySize=auto;html=1;entryX=0;entryY=0.5;entryDx=0;entryDy=0;" edge="1" parent="1" source="UmT_mL2CmANoHyXfQIeq-33" target="UmT_mL2CmANoHyXfQIeq-14">
          <mxGeometry relative="1" as="geometry">
            <mxPoint x="310" y="610" as="targetPoint" />
            <mxPoint x="270" y="940" as="sourcePoint" />
            <Array as="points">
              <mxPoint x="290" y="910" />
              <mxPoint x="290" y="610" />
            </Array>
          </mxGeometry>
        </mxCell>
        <mxCell id="UmT_mL2CmANoHyXfQIeq-33" value="&lt;div&gt;PARSEC: Set capture audio to USB Audio&lt;/div&gt;&lt;div&gt;(PARSEC restart on client required)&lt;br&gt;&lt;/div&gt;" style="rounded=0;whiteSpace=wrap;html=1;fontSize=15;" vertex="1" parent="1">
          <mxGeometry x="60" y="880" width="180" height="100" as="geometry" />
        </mxCell>
      </root>
    </mxGraphModel>
  </diagram>
</mxfile>
